<?xml version="1.0" encoding="utf-8"?>
<svg version="1.1" xmlns:xlink="http://www.w3.org/1999/xlink" width="118px" height="76px" xmlns="http://www.w3.org/2000/svg">
  <defs>
    <pattern id="BGPattern" patternUnits="userSpaceOnUse" alignment="0 0" imageRepeat="None" />
    <mask fill="white" id="Clip198">
      <path d="M 108.94587053571429 68.578125  C 109.36290922619048 68.23626893939395  109.57142857142857 67.8314393939394  109 67.36363636363636  L 109 25.90909090909091  C 108.16666666666669 27.204545454545453  106.65215773809527 28.392045454545453  105.02790178571429 29.47159090909091  C 93.26302083333334 36.88446969696969  83.91257440476191 42.96590909090909  76.9765625 47.71590909090909  C 74.73772321428571 49.263257575757564  72.91592261904762 50.46875  71.51116071428571 51.33238636363636  C 70.10639880952381 52.19602272727273  68.20777529761907 53.0686553030303  65.81529017857143 53.95028409090909  C 63.42280505952381 54.831912878787875  61.17299107142858 55.27272727272727  59.065848214285715 55.27272727272727  L 59 55.27272727272727  L 58.934151785714285 55.27272727272727  C 56.82700892857143 55.27272727272727  54.5771949404762 54.831912878787875  52.18470982142857 53.95028409090909  C 49.792224702380956 53.0686553030303  47.8936011904762 52.19602272727273  46.488839285714285 51.33238636363636  C 45.08407738095239 50.46875  43.262276785714285 49.263257575757564  41.0234375 47.71590909090909  C 34.0874255952381 42.96590909090909  24.73697916666667 36.88446969696969  12.972098214285714 29.47159090909091  C 11.347842261904763 28.392045454545453  9.833333333333334 27.204545454545453  9 25.90909090909091  L 9 67.36363636363636  C 8.428571428571429 67.8314393939394  8.637090773809526 68.23626893939395  9.054129464285714 68.578125  C 9.471168154761905 68.91998106060605  9.965029761904763 69.0909090909091  10.535714285714286 69  L 107.46428571428571 69  C 108.03497023809524 69.0909090909091  108.5288318452381 68.91998106060605  108.94587053571429 68.578125  Z M 106.50948660714286 17.73153409090909  C 108.55078125 15.122632575757567  109.57142857142857 12.756628787878787  109.57142857142857 10.633522727272727  L 109.57142857142857 10.039772727272727  L 109.57142857142857 9.311079545454549  C 109.57142857142857 9.311079545454549  109.56045386904762 9.077178030303019  109.53850446428571 8.609375  C 109.51655505952381 8.141571969696965  109.4507068452381 7.916666666666655  109.34095982142857 7.934659090909088  C 109.23121279761907 7.952651515151514  109.11049107142857 7.79071969696969  108.97879464285714 7.448863636363637  C 108.84709821428571 7.107007575757567  108.64955357142857 6.972064393939389  108.38616071428571 7.044034090909088  C 108.12276785714286 7.116003787878787  107.8154761904762 7.071022727272726  107.46428571428571 7  L 10.535714285714286 7  C 9.965029761904763 6.909090909090912  9.471168154761905 7.08001893939393  9.054129464285714 7.421875  C 8.637090773809526 7.7637310606060534  8.428571428571429 8.168560606060602  8.428571428571429 8.636363636363637  C 8.428571428571429 14.681818181818185  11.655133928571429 19.791666666666657  18.108258928571427 23.96590909090909  C 26.58072916666667 29.435606060606055  35.38244047619048 35.13920454545455  44.513392857142854 41.07670454545455  C 44.776785714285715 41.25662878787878  45.54501488095239 41.7874053030303  46.818080357142854 42.66903409090909  C 48.091145833333336 43.550662878787875  49.100818452380956 44.22537878787878  49.847098214285715 44.69318181818182  C 50.59337797619049 45.160984848484844  51.57012648809524 45.727746212121204  52.77734375 46.39346590909091  C 53.98456101190476 47.0591856060606  55.093005952380956 47.55397727272727  56.10267857142857 47.87784090909091  C 57.1123511904762 48.20170454545455  58.0561755952381 48.36363636363636  58.934151785714285 48.36363636363636  L 59 48.36363636363636  L 59.065848214285715 48.36363636363636  C 59.94382440476191 48.36363636363636  60.88764880952381 48.20170454545455  61.89732142857142 47.87784090909091  C 62.906994047619065 47.55397727272727  64.01543898809524 47.0591856060606  65.22265625 46.39346590909091  C 66.42987351190476 45.727746212121204  67.40662202380952 45.160984848484844  68.15290178571429 44.69318181818182  C 68.89918154761907 44.22537878787878  69.90885416666667 43.550662878787875  71.18191964285714 42.66903409090909  C 72.45498511904762 41.7874053030303  73.22321428571429 41.25662878787878  73.48660714285714 41.07670454545455  C 82.61755952380952 35.13920454545455  91.41927083333334 29.435606060606055  99.89174107142857 23.96590909090909  C 102.26227678571429 22.418560606060602  104.46819196428571 20.340435606060602  106.50948660714286 17.73153409090909  Z M 114.90513392857143 2.5369318181818143  C 116.96837797619048 4.22821969696969  118 6.261363636363637  118 8.636363636363637  L 118 67.36363636363636  C 118 69.73863636363636  116.96837797619048 71.77178030303031  114.90513392857143 73.46306818181819  C 112.84188988095241 75.15435606060605  110.36160714285717 76  107.46428571428571 76  L 10.535714285714286 76  C 7.638392857142858 76  5.1581101190476195 75.15435606060605  3.0948660714285716 73.46306818181819  C 1.0316220238095237 71.77178030303031  0 69.73863636363636  0 67.36363636363636  L 0 8.636363636363637  C 0 6.261363636363637  1.0316220238095237 4.22821969696969  3.0948660714285716 2.5369318181818143  C 5.1581101190476195 0.8456439393939297  7.638392857142858 0  10.535714285714286 0  L 107.46428571428571 0  C 110.36160714285717 0  112.84188988095241 0.8456439393939297  114.90513392857143 2.5369318181818143  Z " fill-rule="evenodd" />
    </mask>
  </defs>
  <g transform="matrix(1 0 0 1 -133 -31 )">
    <path d="M 108.94587053571429 68.578125  C 109.36290922619048 68.23626893939395  109.57142857142857 67.8314393939394  109 67.36363636363636  L 109 25.90909090909091  C 108.16666666666669 27.204545454545453  106.65215773809527 28.392045454545453  105.02790178571429 29.47159090909091  C 93.26302083333334 36.88446969696969  83.91257440476191 42.96590909090909  76.9765625 47.71590909090909  C 74.73772321428571 49.263257575757564  72.91592261904762 50.46875  71.51116071428571 51.33238636363636  C 70.10639880952381 52.19602272727273  68.20777529761907 53.0686553030303  65.81529017857143 53.95028409090909  C 63.42280505952381 54.831912878787875  61.17299107142858 55.27272727272727  59.065848214285715 55.27272727272727  L 59 55.27272727272727  L 58.934151785714285 55.27272727272727  C 56.82700892857143 55.27272727272727  54.5771949404762 54.831912878787875  52.18470982142857 53.95028409090909  C 49.792224702380956 53.0686553030303  47.8936011904762 52.19602272727273  46.488839285714285 51.33238636363636  C 45.08407738095239 50.46875  43.262276785714285 49.263257575757564  41.0234375 47.71590909090909  C 34.0874255952381 42.96590909090909  24.73697916666667 36.88446969696969  12.972098214285714 29.47159090909091  C 11.347842261904763 28.392045454545453  9.833333333333334 27.204545454545453  9 25.90909090909091  L 9 67.36363636363636  C 8.428571428571429 67.8314393939394  8.637090773809526 68.23626893939395  9.054129464285714 68.578125  C 9.471168154761905 68.91998106060605  9.965029761904763 69.0909090909091  10.535714285714286 69  L 107.46428571428571 69  C 108.03497023809524 69.0909090909091  108.5288318452381 68.91998106060605  108.94587053571429 68.578125  Z M 106.50948660714286 17.73153409090909  C 108.55078125 15.122632575757567  109.57142857142857 12.756628787878787  109.57142857142857 10.633522727272727  L 109.57142857142857 10.039772727272727  L 109.57142857142857 9.311079545454549  C 109.57142857142857 9.311079545454549  109.56045386904762 9.077178030303019  109.53850446428571 8.609375  C 109.51655505952381 8.141571969696965  109.4507068452381 7.916666666666655  109.34095982142857 7.934659090909088  C 109.23121279761907 7.952651515151514  109.11049107142857 7.79071969696969  108.97879464285714 7.448863636363637  C 108.84709821428571 7.107007575757567  108.64955357142857 6.972064393939389  108.38616071428571 7.044034090909088  C 108.12276785714286 7.116003787878787  107.8154761904762 7.071022727272726  107.46428571428571 7  L 10.535714285714286 7  C 9.965029761904763 6.909090909090912  9.471168154761905 7.08001893939393  9.054129464285714 7.421875  C 8.637090773809526 7.7637310606060534  8.428571428571429 8.168560606060602  8.428571428571429 8.636363636363637  C 8.428571428571429 14.681818181818185  11.655133928571429 19.791666666666657  18.108258928571427 23.96590909090909  C 26.58072916666667 29.435606060606055  35.38244047619048 35.13920454545455  44.513392857142854 41.07670454545455  C 44.776785714285715 41.25662878787878  45.54501488095239 41.7874053030303  46.818080357142854 42.66903409090909  C 48.091145833333336 43.550662878787875  49.100818452380956 44.22537878787878  49.847098214285715 44.69318181818182  C 50.59337797619049 45.160984848484844  51.57012648809524 45.727746212121204  52.77734375 46.39346590909091  C 53.98456101190476 47.0591856060606  55.093005952380956 47.55397727272727  56.10267857142857 47.87784090909091  C 57.1123511904762 48.20170454545455  58.0561755952381 48.36363636363636  58.934151785714285 48.36363636363636  L 59 48.36363636363636  L 59.065848214285715 48.36363636363636  C 59.94382440476191 48.36363636363636  60.88764880952381 48.20170454545455  61.89732142857142 47.87784090909091  C 62.906994047619065 47.55397727272727  64.01543898809524 47.0591856060606  65.22265625 46.39346590909091  C 66.42987351190476 45.727746212121204  67.40662202380952 45.160984848484844  68.15290178571429 44.69318181818182  C 68.89918154761907 44.22537878787878  69.90885416666667 43.550662878787875  71.18191964285714 42.66903409090909  C 72.45498511904762 41.7874053030303  73.22321428571429 41.25662878787878  73.48660714285714 41.07670454545455  C 82.61755952380952 35.13920454545455  91.41927083333334 29.435606060606055  99.89174107142857 23.96590909090909  C 102.26227678571429 22.418560606060602  104.46819196428571 20.340435606060602  106.50948660714286 17.73153409090909  Z M 114.90513392857143 2.5369318181818143  C 116.96837797619048 4.22821969696969  118 6.261363636363637  118 8.636363636363637  L 118 67.36363636363636  C 118 69.73863636363636  116.96837797619048 71.77178030303031  114.90513392857143 73.46306818181819  C 112.84188988095241 75.15435606060605  110.36160714285717 76  107.46428571428571 76  L 10.535714285714286 76  C 7.638392857142858 76  5.1581101190476195 75.15435606060605  3.0948660714285716 73.46306818181819  C 1.0316220238095237 71.77178030303031  0 69.73863636363636  0 67.36363636363636  L 0 8.636363636363637  C 0 6.261363636363637  1.0316220238095237 4.22821969696969  3.0948660714285716 2.5369318181818143  C 5.1581101190476195 0.8456439393939297  7.638392857142858 0  10.535714285714286 0  L 107.46428571428571 0  C 110.36160714285717 0  112.84188988095241 0.8456439393939297  114.90513392857143 2.5369318181818143  Z " fill-rule="nonzero" fill="rgba(30, 152, 215, 1)" stroke="none" transform="matrix(1 0 0 1 133 31 )" class="fill" />
    <path d="M 108.94587053571429 68.578125  C 109.36290922619048 68.23626893939395  109.57142857142857 67.8314393939394  109 67.36363636363636  L 109 25.90909090909091  C 108.16666666666669 27.204545454545453  106.65215773809527 28.392045454545453  105.02790178571429 29.47159090909091  C 93.26302083333334 36.88446969696969  83.91257440476191 42.96590909090909  76.9765625 47.71590909090909  C 74.73772321428571 49.263257575757564  72.91592261904762 50.46875  71.51116071428571 51.33238636363636  C 70.10639880952381 52.19602272727273  68.20777529761907 53.0686553030303  65.81529017857143 53.95028409090909  C 63.42280505952381 54.831912878787875  61.17299107142858 55.27272727272727  59.065848214285715 55.27272727272727  L 59 55.27272727272727  L 58.934151785714285 55.27272727272727  C 56.82700892857143 55.27272727272727  54.5771949404762 54.831912878787875  52.18470982142857 53.95028409090909  C 49.792224702380956 53.0686553030303  47.8936011904762 52.19602272727273  46.488839285714285 51.33238636363636  C 45.08407738095239 50.46875  43.262276785714285 49.263257575757564  41.0234375 47.71590909090909  C 34.0874255952381 42.96590909090909  24.73697916666667 36.88446969696969  12.972098214285714 29.47159090909091  C 11.347842261904763 28.392045454545453  9.833333333333334 27.204545454545453  9 25.90909090909091  L 9 67.36363636363636  C 8.428571428571429 67.8314393939394  8.637090773809526 68.23626893939395  9.054129464285714 68.578125  C 9.471168154761905 68.91998106060605  9.965029761904763 69.0909090909091  10.535714285714286 69  L 107.46428571428571 69  C 108.03497023809524 69.0909090909091  108.5288318452381 68.91998106060605  108.94587053571429 68.578125  Z " stroke-width="0" stroke-dasharray="0" stroke="rgba(255, 255, 255, 0)" fill="none" transform="matrix(1 0 0 1 133 31 )" class="stroke" mask="url(#Clip198)" />
    <path d="M 106.50948660714286 17.73153409090909  C 108.55078125 15.122632575757567  109.57142857142857 12.756628787878787  109.57142857142857 10.633522727272727  L 109.57142857142857 10.039772727272727  L 109.57142857142857 9.311079545454549  C 109.57142857142857 9.311079545454549  109.56045386904762 9.077178030303019  109.53850446428571 8.609375  C 109.51655505952381 8.141571969696965  109.4507068452381 7.916666666666655  109.34095982142857 7.934659090909088  C 109.23121279761907 7.952651515151514  109.11049107142857 7.79071969696969  108.97879464285714 7.448863636363637  C 108.84709821428571 7.107007575757567  108.64955357142857 6.972064393939389  108.38616071428571 7.044034090909088  C 108.12276785714286 7.116003787878787  107.8154761904762 7.071022727272726  107.46428571428571 7  L 10.535714285714286 7  C 9.965029761904763 6.909090909090912  9.471168154761905 7.08001893939393  9.054129464285714 7.421875  C 8.637090773809526 7.7637310606060534  8.428571428571429 8.168560606060602  8.428571428571429 8.636363636363637  C 8.428571428571429 14.681818181818185  11.655133928571429 19.791666666666657  18.108258928571427 23.96590909090909  C 26.58072916666667 29.435606060606055  35.38244047619048 35.13920454545455  44.513392857142854 41.07670454545455  C 44.776785714285715 41.25662878787878  45.54501488095239 41.7874053030303  46.818080357142854 42.66903409090909  C 48.091145833333336 43.550662878787875  49.100818452380956 44.22537878787878  49.847098214285715 44.69318181818182  C 50.59337797619049 45.160984848484844  51.57012648809524 45.727746212121204  52.77734375 46.39346590909091  C 53.98456101190476 47.0591856060606  55.093005952380956 47.55397727272727  56.10267857142857 47.87784090909091  C 57.1123511904762 48.20170454545455  58.0561755952381 48.36363636363636  58.934151785714285 48.36363636363636  L 59 48.36363636363636  L 59.065848214285715 48.36363636363636  C 59.94382440476191 48.36363636363636  60.88764880952381 48.20170454545455  61.89732142857142 47.87784090909091  C 62.906994047619065 47.55397727272727  64.01543898809524 47.0591856060606  65.22265625 46.39346590909091  C 66.42987351190476 45.727746212121204  67.40662202380952 45.160984848484844  68.15290178571429 44.69318181818182  C 68.89918154761907 44.22537878787878  69.90885416666667 43.550662878787875  71.18191964285714 42.66903409090909  C 72.45498511904762 41.7874053030303  73.22321428571429 41.25662878787878  73.48660714285714 41.07670454545455  C 82.61755952380952 35.13920454545455  91.41927083333334 29.435606060606055  99.89174107142857 23.96590909090909  C 102.26227678571429 22.418560606060602  104.46819196428571 20.340435606060602  106.50948660714286 17.73153409090909  Z " stroke-width="0" stroke-dasharray="0" stroke="rgba(255, 255, 255, 0)" fill="none" transform="matrix(1 0 0 1 133 31 )" class="stroke" mask="url(#Clip198)" />
    <path d="M 114.90513392857143 2.5369318181818143  C 116.96837797619048 4.22821969696969  118 6.261363636363637  118 8.636363636363637  L 118 67.36363636363636  C 118 69.73863636363636  116.96837797619048 71.77178030303031  114.90513392857143 73.46306818181819  C 112.84188988095241 75.15435606060605  110.36160714285717 76  107.46428571428571 76  L 10.535714285714286 76  C 7.638392857142858 76  5.1581101190476195 75.15435606060605  3.0948660714285716 73.46306818181819  C 1.0316220238095237 71.77178030303031  0 69.73863636363636  0 67.36363636363636  L 0 8.636363636363637  C 0 6.261363636363637  1.0316220238095237 4.22821969696969  3.0948660714285716 2.5369318181818143  C 5.1581101190476195 0.8456439393939297  7.638392857142858 0  10.535714285714286 0  L 107.46428571428571 0  C 110.36160714285717 0  112.84188988095241 0.8456439393939297  114.90513392857143 2.5369318181818143  Z " stroke-width="0" stroke-dasharray="0" stroke="rgba(255, 255, 255, 0)" fill="none" transform="matrix(1 0 0 1 133 31 )" class="stroke" mask="url(#Clip198)" />
  </g>
</svg>