<?xml version="1.0" encoding="utf-8"?>
<svg version="1.1" xmlns:xlink="http://www.w3.org/1999/xlink" width="55px" height="53px" xmlns="http://www.w3.org/2000/svg">
  <defs>
    <pattern id="BGPattern" patternUnits="userSpaceOnUse" alignment="0 0" imageRepeat="None" />
    <mask fill="white" id="Clip199">
      <path d="M 15.277777777777779 16.863636363636367  L 15.277777777777779 24  L 39.72222222222222 24  L 39.72222222222222 16.863636363636367  C 39.72222222222222 14.203598484848483  38.528645833333336 11.932528409090907  36.14149305555556 10.050426136363633  C 33.75434027777778 8.168323863636367  30.873842592592595 7.227272727272727  27.5 7.227272727272727  C 24.12615740740741 7.227272727272727  21.24565972222222 8.168323863636367  18.858506944444443 10.050426136363633  C 16.471354166666668 11.932528409090907  15.277777777777779 14.203598484848483  15.277777777777779 16.863636363636367  Z M 53.66319444444444 25.144886363636367  C 54.55439814814815 25.84753787878788  55 26.70075757575757  55 27.704545454545453  L 55 49.38636363636364  C 55 50.390151515151516  54.55439814814815 51.24337121212121  53.66319444444444 51.94602272727273  C 52.77199074074075 52.64867424242424  51.68981481481482 53  50.416666666666664 53  L 4.583333333333333 53  C 3.3101851851851856 53  2.2280092592592595 52.64867424242424  1.3368055555555556 51.94602272727273  C 0.4456018518518518 51.24337121212121  0 50.390151515151516  0 49.38636363636364  L 0 27.704545454545453  C 0 26.70075757575757  0.4456018518518518 25.84753787878788  1.3368055555555556 25.144886363636367  C 2.2280092592592595 24.442234848484848  3.3101851851851856 24.090909090909093  4.583333333333333 24.090909090909093  L 6.111111111111111 24.090909090909093  L 6.111111111111111 16.863636363636367  C 6.111111111111111 12.246212121212116  8.211805555555555 8.28125  12.413194444444445 4.96875  C 16.614583333333332 1.65625  21.64351851851852 0  27.5 0  C 33.35648148148148 0  38.385416666666664 1.65625  42.58680555555556 4.96875  C 46.78819444444444 8.28125  48.888888888888886 12.246212121212116  48.888888888888886 16.863636363636367  L 48.888888888888886 24.090909090909093  L 50.416666666666664 24.090909090909093  C 51.68981481481482 24.090909090909093  52.77199074074075 24.442234848484848  53.66319444444444 25.144886363636367  Z " fill-rule="evenodd" />
    </mask>
  </defs>
  <g transform="matrix(1 0 0 1 -217 -75 )">
    <path d="M 15.277777777777779 16.863636363636367  L 15.277777777777779 24  L 39.72222222222222 24  L 39.72222222222222 16.863636363636367  C 39.72222222222222 14.203598484848483  38.528645833333336 11.932528409090907  36.14149305555556 10.050426136363633  C 33.75434027777778 8.168323863636367  30.873842592592595 7.227272727272727  27.5 7.227272727272727  C 24.12615740740741 7.227272727272727  21.24565972222222 8.168323863636367  18.858506944444443 10.050426136363633  C 16.471354166666668 11.932528409090907  15.277777777777779 14.203598484848483  15.277777777777779 16.863636363636367  Z M 53.66319444444444 25.144886363636367  C 54.55439814814815 25.84753787878788  55 26.70075757575757  55 27.704545454545453  L 55 49.38636363636364  C 55 50.390151515151516  54.55439814814815 51.24337121212121  53.66319444444444 51.94602272727273  C 52.77199074074075 52.64867424242424  51.68981481481482 53  50.416666666666664 53  L 4.583333333333333 53  C 3.3101851851851856 53  2.2280092592592595 52.64867424242424  1.3368055555555556 51.94602272727273  C 0.4456018518518518 51.24337121212121  0 50.390151515151516  0 49.38636363636364  L 0 27.704545454545453  C 0 26.70075757575757  0.4456018518518518 25.84753787878788  1.3368055555555556 25.144886363636367  C 2.2280092592592595 24.442234848484848  3.3101851851851856 24.090909090909093  4.583333333333333 24.090909090909093  L 6.111111111111111 24.090909090909093  L 6.111111111111111 16.863636363636367  C 6.111111111111111 12.246212121212116  8.211805555555555 8.28125  12.413194444444445 4.96875  C 16.614583333333332 1.65625  21.64351851851852 0  27.5 0  C 33.35648148148148 0  38.385416666666664 1.65625  42.58680555555556 4.96875  C 46.78819444444444 8.28125  48.888888888888886 12.246212121212116  48.888888888888886 16.863636363636367  L 48.888888888888886 24.090909090909093  L 50.416666666666664 24.090909090909093  C 51.68981481481482 24.090909090909093  52.77199074074075 24.442234848484848  53.66319444444444 25.144886363636367  Z " fill-rule="nonzero" fill="rgba(30, 152, 215, 1)" stroke="none" transform="matrix(1 0 0 1 217 75 )" class="fill" />
    <path d="M 15.277777777777779 16.863636363636367  L 15.277777777777779 24  L 39.72222222222222 24  L 39.72222222222222 16.863636363636367  C 39.72222222222222 14.203598484848483  38.528645833333336 11.932528409090907  36.14149305555556 10.050426136363633  C 33.75434027777778 8.168323863636367  30.873842592592595 7.227272727272727  27.5 7.227272727272727  C 24.12615740740741 7.227272727272727  21.24565972222222 8.168323863636367  18.858506944444443 10.050426136363633  C 16.471354166666668 11.932528409090907  15.277777777777779 14.203598484848483  15.277777777777779 16.863636363636367  Z " stroke-width="0" stroke-dasharray="0" stroke="rgba(255, 255, 255, 0)" fill="none" transform="matrix(1 0 0 1 217 75 )" class="stroke" mask="url(#Clip199)" />
    <path d="M 53.66319444444444 25.144886363636367  C 54.55439814814815 25.84753787878788  55 26.70075757575757  55 27.704545454545453  L 55 49.38636363636364  C 55 50.390151515151516  54.55439814814815 51.24337121212121  53.66319444444444 51.94602272727273  C 52.77199074074075 52.64867424242424  51.68981481481482 53  50.416666666666664 53  L 4.583333333333333 53  C 3.3101851851851856 53  2.2280092592592595 52.64867424242424  1.3368055555555556 51.94602272727273  C 0.4456018518518518 51.24337121212121  0 50.390151515151516  0 49.38636363636364  L 0 27.704545454545453  C 0 26.70075757575757  0.4456018518518518 25.84753787878788  1.3368055555555556 25.144886363636367  C 2.2280092592592595 24.442234848484848  3.3101851851851856 24.090909090909093  4.583333333333333 24.090909090909093  L 6.111111111111111 24.090909090909093  L 6.111111111111111 16.863636363636367  C 6.111111111111111 12.246212121212116  8.211805555555555 8.28125  12.413194444444445 4.96875  C 16.614583333333332 1.65625  21.64351851851852 0  27.5 0  C 33.35648148148148 0  38.385416666666664 1.65625  42.58680555555556 4.96875  C 46.78819444444444 8.28125  48.888888888888886 12.246212121212116  48.888888888888886 16.863636363636367  L 48.888888888888886 24.090909090909093  L 50.416666666666664 24.090909090909093  C 51.68981481481482 24.090909090909093  52.77199074074075 24.442234848484848  53.66319444444444 25.144886363636367  Z " stroke-width="0" stroke-dasharray="0" stroke="rgba(255, 255, 255, 0)" fill="none" transform="matrix(1 0 0 1 217 75 )" class="stroke" mask="url(#Clip199)" />
  </g>
</svg>