<?xml version="1.0" encoding="utf-8"?>
<svg version="1.1" xmlns:xlink="http://www.w3.org/1999/xlink" width="805px" height="394px" xmlns="http://www.w3.org/2000/svg">
  <defs>
    <pattern id="BGPattern" patternUnits="userSpaceOnUse" alignment="0 0" imageRepeat="None" />
    <mask fill="white" id="Clip209">
      <path d="M 805 0  L 0 0  L 0 325.82653012274034  C 0 325.82653012274034  95.64356435643585 401.6047350472249  225.1608910891094 393.3751298208475  C 354.6782178217821 385.14552459447  424.418316831683 291.3280250137658  575.8539603960396 284.74434083266357  C 727.2896039603962 278.16065665156157  805 284.74434083266357  805 284.74434083266357  L 805 0  Z " fill-rule="evenodd" />
    </mask>
  </defs>
  <g transform="matrix(1 0 0 1 205 -205 )">
    <path d="M 805 0  L 0 0  L 0 325.82653012274034  C 0 325.82653012274034  95.64356435643585 401.6047350472249  225.1608910891094 393.3751298208475  C 354.6782178217821 385.14552459447  424.418316831683 291.3280250137658  575.8539603960396 284.74434083266357  C 727.2896039603962 278.16065665156157  805 284.74434083266357  805 284.74434083266357  L 805 0  Z " fill-rule="nonzero" fill="rgba(30, 152, 215, 1)" stroke="none" transform="matrix(1 0 0 1 -205 205 )" class="fill" />
    <path d="M 805 0  L 0 0  L 0 325.82653012274034  C 0 325.82653012274034  95.64356435643585 401.6047350472249  225.1608910891094 393.3751298208475  C 354.6782178217821 385.14552459447  424.418316831683 291.3280250137658  575.8539603960396 284.74434083266357  C 727.2896039603962 278.16065665156157  805 284.74434083266357  805 284.74434083266357  L 805 0  Z " stroke-width="2" stroke-dasharray="0" stroke="rgba(121, 121, 121, 1)" fill="none" transform="matrix(1 0 0 1 -205 205 )" class="stroke" mask="url(#Clip209)" />
  </g>
</svg>