<?xml version="1.0" encoding="utf-8"?>
<svg version="1.1" xmlns:xlink="http://www.w3.org/1999/xlink" width="881px" height="438px" xmlns="http://www.w3.org/2000/svg">
  <defs>
    <pattern id="BGPattern" patternUnits="userSpaceOnUse" alignment="0 0" imageRepeat="None" />
    <mask fill="white" id="Clip203">
      <path d="M 881 0  L 0 0  L 0 362.2132492227418  C 0 362.2132492227418  104.67326732673288 446.45399479869167  246.41831683168374 437.3053473642924  C 388.16336633663354 428.156699929893  464.4876237623761 323.86211917773966  630.2202970297029 316.5432012302199  C 795.9529702970299 309.2242832827004  881 316.5432012302199  881 316.5432012302199  L 881 0  Z " fill-rule="evenodd" />
    </mask>
  </defs>
  <g transform="matrix(1 0 0 1 221 -137 )">
    <path d="M 881 0  L 0 0  L 0 362.2132492227418  C 0 362.2132492227418  104.67326732673288 446.45399479869167  246.41831683168374 437.3053473642924  C 388.16336633663354 428.156699929893  464.4876237623761 323.86211917773966  630.2202970297029 316.5432012302199  C 795.9529702970299 309.2242832827004  881 316.5432012302199  881 316.5432012302199  L 881 0  Z " fill-rule="nonzero" fill="rgba(30, 152, 215, 0)" stroke="none" transform="matrix(1 0 0 1 -221 137 )" class="fill" />
    <path d="M 881 0  L 0 0  L 0 362.2132492227418  C 0 362.2132492227418  104.67326732673288 446.45399479869167  246.41831683168374 437.3053473642924  C 388.16336633663354 428.156699929893  464.4876237623761 323.86211917773966  630.2202970297029 316.5432012302199  C 795.9529702970299 309.2242832827004  881 316.5432012302199  881 316.5432012302199  L 881 0  Z " stroke-width="14" stroke-dasharray="63,28,14,28,14,28" stroke="rgba(30, 152, 215, 1)" fill="none" transform="matrix(1 0 0 1 -221 137 )" class="stroke" mask="url(#Clip203)" />
  </g>
</svg>